# 3ds Max Wavefront OBJ Exporter v0.97b - (c)2007 guruware
# File Created: 07.03.2018 19:58:37

#
# object Rectangle002
#

v  9.0695 10.0000 30.8975
v  31.0615 10.0000 30.8975
v  28.8155 10.0000 28.6515
v  11.3155 10.0000 28.6515
v  9.0695 10.0000 8.9055
v  11.3155 10.0000 11.1515
v  31.0615 10.0000 8.9055
v  28.8155 10.0000 11.1515
v  23.7936 10.0000 15.9690
v  23.7936 10.0000 12.0629
v  23.5436 10.0000 12.0629
v  23.5436 10.0000 15.9690
v  26.4099 10.0000 15.9751
v  26.4099 10.0000 12.0690
v  26.1599 10.0000 12.0690
v  26.1599 10.0000 15.9751
v  15.9222 10.0000 14.7641
v  14.6479 10.0000 15.5537
v  14.8063 10.0000 15.7471
v  16.0101 10.0000 14.9992
v  21.0595 10.0000 18.9469
v  21.3063 10.0000 18.9863
v  21.3442 10.0000 17.1223
v  21.0952 10.0000 17.2027
v  20.8304 10.0000 15.7474
v  20.6151 10.0000 15.9148
v  19.8980 10.0000 14.8429
v  19.7428 10.0000 15.0670
v  18.6804 10.0000 14.3900
v  18.6020 10.0000 14.6427
v  17.3107 10.0000 14.3700
v  17.3166 10.0000 14.6256
v  18.6657 10.0000 20.7976
v  18.6657 10.0000 21.0476
v  24.2105 10.0000 21.0476
v  24.4605 10.0000 20.7976
v  24.2105 10.0000 23.4902
v  24.4605 10.0000 23.4902
v  19.2519 10.0000 26.3121
v  19.2519 10.0000 26.5621
v  29.0655 10.0000 26.5621
v  29.0655 10.0000 26.3121
v  22.5456 10.0000 26.5621
v  22.5456 10.0000 22.7330
v  22.2956 10.0000 22.7330
v  22.2956 10.0000 26.5621
v  17.8653 10.0000 24.7253
v  20.6687 10.0000 24.7253
v  20.6687 10.0000 24.4753
v  17.6153 10.0000 24.4753
v  17.6153 10.0000 28.9015
v  17.8653 10.0000 28.9015
v  16.6139 10.0000 22.4399
v  12.8522 10.0000 22.4399
v  12.8522 10.0000 22.6899
v  16.8639 10.0000 22.6899
v  12.8522 10.0000 18.4771
v  12.8522 10.0000 18.7271
v  16.6139 10.0000 18.7271
v  16.8639 10.0000 18.4771
v  16.9650 10.0000 16.4129
v  16.4343 10.0000 16.7406
v  16.7512 10.0000 17.1273
v  17.1409 10.0000 16.8831
v  18.7364 10.0000 18.1179
v  19.2302 10.0000 18.1966
v  19.2460 10.0000 17.4101
v  18.7480 10.0000 17.5707
v  19.0287 10.0000 16.8307
v  18.5981 10.0000 17.1654
v  18.6352 10.0000 16.4499
v  18.3247 10.0000 16.8980
v  18.1223 10.0000 16.2590
v  17.9654 10.0000 16.7645
v  17.5466 10.0000 16.2496
v  17.5582 10.0000 16.7608
v  11.3155 0.0000 28.6515
v  28.8155 0.0000 28.6515
v  31.0615 0.0000 30.8975
v  9.0695 0.0000 30.8975
v  9.0695 0.0000 8.9055
v  11.3155 0.0000 11.1515
v  31.0615 0.0000 8.9055
v  28.8155 0.0000 11.1515
v  23.5436 0.0000 12.0629
v  23.7936 0.0000 12.0629
v  23.7936 0.0000 15.9690
v  23.5436 0.0000 15.9690
v  26.1599 0.0000 12.0690
v  26.4099 0.0000 12.0690
v  26.4099 0.0000 15.9751
v  26.1599 0.0000 15.9751
v  14.8063 0.0000 15.7471
v  14.6479 0.0000 15.5537
v  15.9222 0.0000 14.7641
v  16.0101 0.0000 14.9992
v  21.3442 0.0000 17.1223
v  21.3063 0.0000 18.9863
v  21.0595 0.0000 18.9469
v  21.0952 0.0000 17.2027
v  20.8304 0.0000 15.7474
v  20.6151 0.0000 15.9148
v  19.8980 0.0000 14.8429
v  19.7428 0.0000 15.0670
v  18.6804 0.0000 14.3900
v  18.6020 0.0000 14.6427
v  17.3107 0.0000 14.3700
v  17.3166 0.0000 14.6256
v  24.2105 0.0000 21.0476
v  18.6657 0.0000 21.0476
v  18.6657 0.0000 20.7976
v  24.4605 0.0000 20.7976
v  24.4605 0.0000 23.4902
v  24.2105 0.0000 23.4902
v  29.0655 0.0000 26.5621
v  19.2519 0.0000 26.5621
v  19.2519 0.0000 26.3121
v  29.0655 0.0000 26.3121
v  22.2956 0.0000 22.7330
v  22.5456 0.0000 22.7330
v  22.5456 0.0000 26.5621
v  22.2956 0.0000 26.5621
v  20.6687 0.0000 24.4753
v  20.6687 0.0000 24.7253
v  17.8653 0.0000 24.7253
v  17.6153 0.0000 24.4753
v  17.8653 0.0000 28.9015
v  17.6153 0.0000 28.9015
v  12.8522 0.0000 22.6899
v  12.8522 0.0000 22.4399
v  16.6139 0.0000 22.4399
v  16.8639 0.0000 22.6899
v  16.6139 0.0000 18.7271
v  12.8522 0.0000 18.7271
v  12.8522 0.0000 18.4771
v  16.8639 0.0000 18.4771
v  16.7512 0.0000 17.1273
v  16.4343 0.0000 16.7406
v  16.9650 0.0000 16.4129
v  17.1409 0.0000 16.8831
v  19.2460 0.0000 17.4101
v  19.2302 0.0000 18.1966
v  18.7364 0.0000 18.1179
v  18.7480 0.0000 17.5707
v  19.0287 0.0000 16.8307
v  18.5981 0.0000 17.1654
v  18.6352 0.0000 16.4499
v  18.3247 0.0000 16.8980
v  18.1223 0.0000 16.2590
v  17.9654 0.0000 16.7645
v  17.5466 0.0000 16.2496
v  17.5582 0.0000 16.7608
v  23.2888 0.0000 19.4593
v  23.2888 0.0000 17.4079
v  27.3079 0.0000 17.4079
v  27.3079 0.0000 19.4593
v  23.2888 10.0000 19.4593
v  27.3079 10.0000 19.4593
v  27.3079 10.0000 17.4079
v  23.2888 10.0000 17.4079
# 160 vertices

vn 0.0000 1.0000 -0.0000
vn -0.0000 1.0000 -0.0000
vn 0.0000 1.0000 0.0000
vn -0.0000 1.0000 0.0000
vn 0.0000 -1.0000 -0.0000
vn -0.0000 0.0000 1.0000
vn -1.0000 0.0000 -0.0000
vn 1.0000 0.0000 -0.0000
vn 0.0000 0.0000 -1.0000
vn 1.0000 0.0000 0.0000
vn 0.0000 0.0000 1.0000
vn -0.0000 0.0000 -1.0000
vn -0.1574 0.0000 0.9875
vn 0.9998 0.0000 0.0203
vn 0.9858 0.0000 -0.1679
vn -0.4038 0.0000 -0.9149
vn -0.5267 0.0000 -0.8500
vn -0.7735 0.0000 0.6338
vn 0.5277 0.0000 0.8494
vn 0.4052 0.0000 0.9142
vn -0.1306 0.0000 -0.9914
vn 0.1322 0.0000 0.9912
vn -0.1836 0.0000 0.9830
vn 0.1843 0.0000 -0.9829
vn -0.5343 0.0000 0.8453
vn 0.5339 0.0000 -0.8456
vn -0.8374 0.0000 0.5466
vn 0.8370 0.0000 -0.5473
vn -0.9859 0.0000 0.1674
vn -0.9998 0.0000 -0.0205
vn 0.9998 0.0000 0.0200
vn 0.9857 0.0000 -0.1685
vn -0.4018 0.0000 -0.9157
vn -0.5253 0.0000 -0.8509
vn 0.5310 0.0000 0.8473
vn 0.4100 0.0000 0.9121
vn -0.1284 0.0000 -0.9917
vn 0.1376 0.0000 0.9905
vn -0.1814 0.0000 0.9834
vn 0.1852 0.0000 -0.9827
vn -0.5355 0.0000 0.8446
vn 0.5334 0.0000 -0.8459
vn -0.8390 0.0000 0.5441
vn 0.8363 0.0000 -0.5482
vn -0.9862 0.0000 0.1657
vn -0.9998 0.0000 -0.0211
# 46 vertex normals

vt -10.9960 -10.9960 10.0000
vt 10.9960 -10.9960 10.0000
vt 8.7500 -8.7500 10.0000
vt -8.7500 -8.7500 10.0000
vt -10.9960 10.9960 10.0000
vt -8.7500 8.7500 10.0000
vt 10.9960 10.9960 10.0000
vt 8.7500 8.7500 10.0000
vt 3.7282 3.9325 10.0000
vt 3.7282 7.8386 10.0000
vt 3.4782 7.8386 10.0000
vt 3.4782 3.9325 10.0000
vt 6.3444 3.9263 10.0000
vt 6.3444 7.8325 10.0000
vt 6.0944 7.8325 10.0000
vt 6.0944 3.9263 10.0000
vt -4.1433 5.1373 10.0000
vt -5.4176 4.3478 10.0000
vt -5.2591 4.1544 10.0000
vt -4.0554 4.9023 10.0000
vt 0.9940 0.9545 10.0000
vt 1.2409 0.9152 10.0000
vt 1.2787 2.7791 10.0000
vt 1.0297 2.6988 10.0000
vt 0.7649 4.1540 10.0000
vt 0.5496 3.9867 10.0000
vt -0.1674 5.0586 10.0000
vt -0.3227 4.8345 10.0000
vt -1.3850 5.5115 10.0000
vt -1.4634 5.2588 10.0000
vt -2.7547 5.5315 10.0000
vt -2.7489 5.2759 10.0000
vt -1.3998 -0.8961 10.0000
vt -1.3998 -1.1461 10.0000
vt 4.1450 -1.1461 10.0000
vt 4.3950 -0.8961 10.0000
vt 4.1450 -3.5888 10.0000
vt 4.3950 -3.5888 10.0000
vt -0.8135 -6.4106 10.0000
vt -0.8135 -6.6606 10.0000
vt 9.0000 -6.6606 10.0000
vt 9.0000 -6.4106 10.0000
vt 2.4801 -6.6606 10.0000
vt 2.4801 -2.8315 10.0000
vt 2.2301 -2.8315 10.0000
vt 2.2301 -6.6606 10.0000
vt -2.2001 -4.8238 10.0000
vt 0.6033 -4.8238 10.0000
vt 0.6033 -4.5738 10.0000
vt -2.4501 -4.5738 10.0000
vt -2.4501 -9.0000 10.0000
vt -2.2001 -9.0000 10.0000
vt -3.4516 -2.5384 10.0000
vt -7.2133 -2.5384 10.0000
vt -7.2133 -2.7884 10.0000
vt -3.2016 -2.7884 10.0000
vt -7.2132 1.4244 10.0000
vt -7.2133 1.1744 10.0000
vt -3.4516 1.1744 10.0000
vt -3.2016 1.4244 10.0000
vt -3.1005 3.4885 10.0000
vt -3.6312 3.1609 10.0000
vt -3.3143 2.7742 10.0000
vt -2.9246 3.0184 10.0000
vt -1.3290 1.7836 10.0000
vt -0.8352 1.7049 10.0000
vt -0.8195 2.4914 10.0000
vt -1.3175 2.3307 10.0000
vt -1.0367 3.0708 10.0000
vt -1.4673 2.7360 10.0000
vt -1.4302 3.4516 10.0000
vt -1.7408 3.0035 10.0000
vt -1.9432 3.6425 10.0000
vt -2.1000 3.1370 10.0000
vt -2.5189 3.6519 10.0000
vt -2.5072 3.1407 10.0000
vt -8.7500 -8.7500 0.0000
vt 8.7500 -8.7500 0.0000
vt 10.9960 -10.9960 0.0000
vt -10.9960 -10.9960 0.0000
vt -10.9960 10.9960 0.0000
vt -8.7500 8.7500 0.0000
vt 10.9960 10.9960 0.0000
vt 8.7500 8.7500 0.0000
vt 3.4782 7.8386 0.0000
vt 3.7282 7.8386 0.0000
vt 3.7282 3.9325 0.0000
vt 3.4782 3.9325 0.0000
vt 6.0944 7.8325 0.0000
vt 6.3444 7.8325 0.0000
vt 6.3444 3.9263 0.0000
vt 6.0944 3.9263 0.0000
vt -5.2591 4.1544 0.0000
vt -5.4176 4.3478 0.0000
vt -4.1433 5.1373 0.0000
vt -4.0554 4.9023 0.0000
vt 1.2787 2.7791 0.0000
vt 1.2409 0.9152 0.0000
vt 0.9940 0.9545 0.0000
vt 1.0297 2.6988 0.0000
vt 0.7649 4.1540 0.0000
vt 0.5496 3.9867 0.0000
vt -0.1674 5.0586 0.0000
vt -0.3227 4.8345 0.0000
vt -1.3850 5.5115 0.0000
vt -1.4634 5.2588 0.0000
vt -2.7547 5.5315 0.0000
vt -2.7489 5.2759 0.0000
vt 4.1450 -1.1461 0.0000
vt -1.3998 -1.1461 0.0000
vt -1.3998 -0.8961 0.0000
vt 4.3950 -0.8961 0.0000
vt 4.3950 -3.5888 0.0000
vt 4.1450 -3.5888 0.0000
vt 9.0000 -6.6606 0.0000
vt -0.8135 -6.6606 0.0000
vt -0.8135 -6.4106 0.0000
vt 9.0000 -6.4106 0.0000
vt 2.2301 -2.8315 0.0000
vt 2.4801 -2.8315 0.0000
vt 2.4801 -6.6606 0.0000
vt 2.2301 -6.6606 0.0000
vt 0.6033 -4.5738 0.0000
vt 0.6033 -4.8238 0.0000
vt -2.2001 -4.8238 0.0000
vt -2.4501 -4.5738 0.0000
vt -2.2001 -9.0000 0.0000
vt -2.4501 -9.0000 0.0000
vt -7.2133 -2.7884 0.0000
vt -7.2133 -2.5384 0.0000
vt -3.4516 -2.5384 0.0000
vt -3.2016 -2.7884 0.0000
vt -3.4516 1.1744 0.0000
vt -7.2133 1.1744 0.0000
vt -7.2132 1.4244 0.0000
vt -3.2016 1.4244 0.0000
vt -3.3143 2.7742 0.0000
vt -3.6312 3.1609 0.0000
vt -3.1005 3.4885 0.0000
vt -2.9246 3.0184 0.0000
vt -0.8195 2.4914 0.0000
vt -0.8352 1.7049 0.0000
vt -1.3290 1.7836 0.0000
vt -1.3175 2.3307 0.0000
vt -1.0367 3.0708 0.0000
vt -1.4673 2.7360 0.0000
vt -1.4302 3.4516 0.0000
vt -1.7408 3.0035 0.0000
vt -1.9432 3.6425 0.0000
vt -2.1000 3.1370 0.0000
vt -2.5189 3.6519 0.0000
vt -2.5072 3.1407 0.0000
vt 1.0000 0.0000 0.0000
vt 1.0000 1.0000 0.0000
vt 0.0000 1.0000 0.0000
vt 0.0000 0.0000 0.0000
# 156 texture coords

g Rectangle002
s 1
f 1/1/1 2/2/1 3/3/2 4/4/1 
f 5/5/1 1/1/1 4/4/1 6/6/3 
f 7/7/4 5/5/1 6/6/3 8/8/4 
f 7/7/4 8/8/4 3/3/2 2/2/1 
f 9/9/1 10/10/1 11/11/1 12/12/1 
f 13/13/1 14/14/1 15/15/1 16/16/1 
f 17/17/1 18/18/1 19/19/1 20/20/1 
f 21/21/1 22/22/1 23/23/2 24/24/1 
f 24/24/1 23/23/2 25/25/1 26/26/1 
f 26/26/1 25/25/1 27/27/1 28/28/1 
f 28/28/1 27/27/1 29/29/1 30/30/1 
f 30/30/1 29/29/1 31/31/1 32/32/1 
f 20/20/1 32/32/1 31/31/1 17/17/1 
f 33/33/1 34/34/1 35/35/1 36/36/1 
f 37/37/1 38/38/1 36/36/1 35/35/1 
f 39/39/1 40/40/1 41/41/1 42/42/1 
f 43/43/1 44/44/1 45/45/1 46/46/1 
f 47/47/3 48/48/2 49/49/4 50/50/3 
f 47/47/3 50/50/3 51/51/1 52/52/1 
f 53/53/1 54/54/1 55/55/1 56/56/1 
f 57/57/1 58/58/1 59/59/1 60/60/1 
f 56/56/1 60/60/1 59/59/1 53/53/1 
f 61/61/3 62/62/1 63/63/3 64/64/3 
f 65/65/3 66/66/3 67/67/3 68/68/1 
f 68/68/1 67/67/3 69/69/1 70/70/1 
f 70/70/1 69/69/1 71/71/1 72/72/1 
f 72/72/1 71/71/1 73/73/2 74/74/2 
f 74/74/2 73/73/2 75/75/2 76/76/2 
f 64/64/3 76/76/2 75/75/2 61/61/3 
f 77/77/5 78/78/5 79/79/5 80/80/5 
f 77/77/5 80/80/5 81/81/5 82/82/5 
f 82/82/5 81/81/5 83/83/5 84/84/5 
f 83/83/5 79/79/5 78/78/5 84/84/5 
f 85/85/5 86/86/5 87/87/5 88/88/5 
f 89/89/5 90/90/5 91/91/5 92/92/5 
f 93/93/5 94/94/5 95/95/5 96/96/5 
f 97/97/5 98/98/5 99/99/5 100/100/5 
f 101/101/5 97/97/5 100/100/5 102/102/5 
f 103/103/5 101/101/5 102/102/5 104/104/5 
f 105/105/5 103/103/5 104/104/5 106/106/5 
f 107/107/5 105/105/5 106/106/5 108/108/5 
f 107/107/5 108/108/5 96/96/5 95/95/5 
f 109/109/5 110/110/5 111/111/5 112/112/5 
f 112/112/5 113/113/5 114/114/5 109/109/5 
f 115/115/5 116/116/5 117/117/5 118/118/5 
f 119/119/5 120/120/5 121/121/5 122/122/5 
f 123/123/5 124/124/5 125/125/5 126/126/5 
f 125/125/5 127/127/5 128/128/5 126/126/5 
f 129/129/5 130/130/5 131/131/5 132/132/5 
f 133/133/5 134/134/5 135/135/5 136/136/5 
f 133/133/5 136/136/5 132/132/5 131/131/5 
f 137/137/5 138/138/5 139/139/5 140/140/5 
f 141/141/5 142/142/5 143/143/5 144/144/5 
f 145/145/5 141/141/5 144/144/5 146/146/5 
f 147/147/5 145/145/5 146/146/5 148/148/5 
f 149/149/5 147/147/5 148/148/5 150/150/5 
f 151/151/5 149/149/5 150/150/5 152/152/5 
f 151/151/5 152/152/5 140/140/5 139/139/5 
s 2
f 82/82/6 84/84/6 8/8/6 6/6/6 
s 4
f 84/84/7 78/78/7 3/3/7 8/8/7 
s 2
f 79/79/8 83/83/8 7/7/8 2/2/8 
s 4
f 83/83/9 81/81/9 5/5/9 7/7/9 
f 77/77/10 82/82/10 6/6/10 4/4/10 
s 2
f 81/81/7 80/80/7 1/1/7 5/5/7 
f 78/78/9 77/77/9 4/4/9 3/3/9 
s 4
f 80/80/11 79/79/11 2/2/11 1/1/11 
s 2
f 85/85/7 88/88/7 12/12/7 11/11/7 
s 4
f 88/88/6 87/87/6 9/9/6 12/12/6 
s 2
f 87/87/8 86/86/8 10/10/8 9/9/8 
s 4
f 86/86/12 85/85/12 11/11/12 10/10/12 
s 2
f 89/89/7 92/92/7 16/16/7 15/15/7 
s 4
f 92/92/11 91/91/11 13/13/11 16/16/11 
s 2
f 91/91/8 90/90/8 14/14/8 13/13/8 
s 4
f 90/90/12 89/89/12 15/15/12 14/14/12 
s 2
f 99/99/13 98/98/13 22/22/13 21/21/13 
s 4
f 98/98/14 97/97/15 23/23/15 22/22/14 
f 95/95/16 94/94/17 18/18/17 17/17/16 
s 2
f 94/94/18 93/93/18 19/19/18 18/18/18 
s 4
f 93/93/19 96/96/20 20/20/20 19/19/19 
f 107/107/21 95/95/16 17/17/16 31/31/21 
f 96/96/20 108/108/22 32/32/22 20/20/20 
f 108/108/22 106/106/23 30/30/23 32/32/22 
f 105/105/24 107/107/21 31/31/21 29/29/24 
f 106/106/23 104/104/25 28/28/25 30/30/23 
f 103/103/26 105/105/24 29/29/24 27/27/26 
f 104/104/25 102/102/27 26/26/27 28/28/25 
f 101/101/28 103/103/26 27/27/26 25/25/28 
f 102/102/27 100/100/29 24/24/29 26/26/27 
f 97/97/15 101/101/28 25/25/28 23/23/15 
f 100/100/29 99/99/30 21/21/30 24/24/29 
s 2
f 114/114/6 113/113/6 38/38/6 37/37/6 
s 4
f 113/113/8 112/112/8 36/36/8 38/38/8 
s 2
f 111/111/7 110/110/7 34/34/7 33/33/7 
s 4
f 110/110/11 109/109/11 35/35/11 34/34/11 
s 8
f 112/112/12 111/111/12 33/33/12 36/36/12 
f 109/109/7 114/114/7 37/37/7 35/35/7 
s 2
f 115/115/8 118/118/8 42/42/8 41/41/8 
s 4
f 118/118/9 117/117/9 39/39/9 42/42/9 
s 2
f 117/117/7 116/116/7 40/40/7 39/39/7 
s 4
f 116/116/11 115/115/11 41/41/11 40/40/11 
s 2
f 119/119/7 122/122/7 46/46/7 45/45/7 
s 4
f 122/122/11 121/121/11 43/43/11 46/46/11 
s 2
f 121/121/8 120/120/8 44/44/8 43/43/8 
s 4
f 120/120/12 119/119/12 45/45/12 44/44/12 
s 2
f 128/128/11 127/127/11 52/52/11 51/51/11 
s 4
f 127/127/8 125/125/8 47/47/8 52/52/8 
s 2
f 125/125/11 124/124/11 48/48/11 47/47/11 
s 4
f 124/124/8 123/123/8 49/49/8 48/48/8 
s 2
f 123/123/9 126/126/9 50/50/9 49/49/9 
s 4
f 126/126/7 128/128/7 51/51/7 50/50/7 
s 2
f 135/135/7 134/134/7 58/58/7 57/57/7 
s 4
f 134/134/11 133/133/11 59/59/11 58/58/11 
s 2
f 131/131/9 130/130/9 54/54/9 53/53/9 
s 4
f 130/130/7 129/129/7 55/55/7 54/54/7 
s 2
f 129/129/11 132/132/11 56/56/11 55/55/11 
s 8
f 133/133/7 131/131/7 53/53/7 59/59/7 
s 4
f 132/132/8 136/136/8 60/60/8 56/56/8 
s 8
f 136/136/9 135/135/9 57/57/9 60/60/9 
s 2
f 143/143/13 142/142/13 66/66/13 65/65/13 
s 4
f 142/142/31 141/141/32 67/67/32 66/66/31 
f 139/139/33 138/138/34 62/62/34 61/61/33 
s 2
f 138/138/18 137/137/18 63/63/18 62/62/18 
s 4
f 137/137/35 140/140/36 64/64/36 63/63/35 
f 151/151/37 139/139/33 61/61/33 75/75/37 
f 140/140/36 152/152/38 76/76/38 64/64/36 
f 152/152/38 150/150/39 74/74/39 76/76/38 
f 149/149/40 151/151/37 75/75/37 73/73/40 
f 150/150/39 148/148/41 72/72/41 74/74/39 
f 147/147/42 149/149/40 73/73/40 71/71/42 
f 148/148/41 146/146/43 70/70/43 72/72/41 
f 145/145/44 147/147/42 71/71/42 69/69/44 
f 146/146/43 144/144/45 68/68/45 70/70/43 
f 141/141/32 145/145/44 69/69/44 67/67/32 
f 144/144/45 143/143/46 65/65/46 68/68/45 
s 2
f 153/153/5 154/154/5 155/155/5 156/156/5 
s 4
f 157/156/1 158/153/1 159/154/1 160/155/1 
s 8
f 153/156/11 156/153/11 158/154/11 157/155/11 
s 16
f 156/156/8 155/153/8 159/154/8 158/155/8 
s 32
f 155/156/9 154/153/9 160/154/9 159/155/9 
s 64
f 154/156/7 153/153/7 157/154/7 160/155/7 
# 140 polygons

